<mxfile host="Electron" agent="Mozilla/5.0 (Windows NT 10.0; Win64; x64) AppleWebKit/537.36 (KHTML, like Gecko) draw.io/26.0.16 Chrome/132.0.6834.196 Electron/34.2.0 Safari/537.36" version="26.0.16">
  <diagram id="IZRMX1NulI20OOc-TkWw" name="Page-1">
    <mxGraphModel dx="1349" dy="669" grid="1" gridSize="10" guides="1" tooltips="1" connect="1" arrows="1" fold="1" page="1" pageScale="1" pageWidth="827" pageHeight="1169" math="0" shadow="0">
      <root>
        <mxCell id="0" />
        <mxCell id="1" parent="0" />
        <mxCell id="f5g3qjjmolaXFry7MfMh-1" value="&lt;p style=&quot;margin: 0px ; margin-top: 4px ; text-align: center&quot;&gt;&lt;i&gt;&amp;lt;&amp;lt;Mission&amp;gt;&amp;gt;&lt;/i&gt;&lt;br&gt;&lt;b&gt;Mission of the system&lt;/b&gt;&lt;/p&gt;&lt;hr size=&quot;1&quot;&gt;&lt;p style=&quot;margin: 0px ; margin-left: 4px&quot;&gt;Id = &quot;1&quot;&lt;/p&gt;&lt;p style=&quot;margin: 0px ; margin-left: 4px&quot;&gt;Text = &quot;Scan a room to obtain the most accurate possible&lt;/p&gt;&lt;p style=&quot;margin: 0px ; margin-left: 4px&quot;&gt;3D model&lt;span&gt;&quot;&lt;/span&gt;&lt;/p&gt;" style="verticalAlign=top;align=left;overflow=fill;fontSize=12;fontFamily=Helvetica;html=1;" parent="1" vertex="1">
          <mxGeometry x="480" y="330" width="320" height="90" as="geometry" />
        </mxCell>
        <mxCell id="f5g3qjjmolaXFry7MfMh-2" value="&lt;p style=&quot;margin: 0px ; margin-top: 4px ; text-align: center&quot;&gt;&lt;i&gt;&amp;lt;&amp;lt;Mission&amp;gt;&amp;gt;&lt;/i&gt;&lt;br&gt;&lt;b&gt;Purpose of the system&lt;/b&gt;&lt;/p&gt;&lt;hr size=&quot;1&quot;&gt;&lt;p style=&quot;margin: 0px ; margin-left: 4px&quot;&gt;Id = &quot;0&quot;&lt;/p&gt;&lt;p style=&quot;margin: 0px ; margin-left: 4px&quot;&gt;Text = &quot;Enable environmental exploration as well as its use&lt;/p&gt;&lt;p style=&quot;margin: 0px ; margin-left: 4px&quot;&gt;in specialised processing software and its storage on a&lt;/p&gt;&lt;p style=&quot;margin: 0px ; margin-left: 4px&quot;&gt;digital medium.&quot;&lt;/p&gt;" style="verticalAlign=top;align=left;overflow=fill;fontSize=12;fontFamily=Helvetica;html=1;" parent="1" vertex="1">
          <mxGeometry x="480" y="75" width="320" height="110" as="geometry" />
        </mxCell>
        <mxCell id="f5g3qjjmolaXFry7MfMh-3" value="" style="endArrow=classic;html=1;entryX=0.5;entryY=1;entryDx=0;entryDy=0;exitX=0.5;exitY=0;exitDx=0;exitDy=0;dashed=1;" parent="1" source="f5g3qjjmolaXFry7MfMh-1" target="f5g3qjjmolaXFry7MfMh-2" edge="1">
          <mxGeometry width="50" height="50" relative="1" as="geometry">
            <mxPoint x="350" y="350" as="sourcePoint" />
            <mxPoint x="400" y="300" as="targetPoint" />
          </mxGeometry>
        </mxCell>
        <mxCell id="f5g3qjjmolaXFry7MfMh-4" value="«Problem»&lt;br&gt;&lt;b&gt;How can we digitally acquire the world around us&lt;/b&gt;&lt;div&gt;&lt;b&gt;and create a computational model of&lt;/b&gt;&lt;/div&gt;&lt;div&gt;&lt;b&gt;the physical world?&lt;/b&gt;&lt;/div&gt;" style="html=1;" parent="1" vertex="1">
          <mxGeometry x="-20" y="70" width="300" height="120" as="geometry" />
        </mxCell>
        <mxCell id="f5g3qjjmolaXFry7MfMh-6" value="" style="endArrow=none;dashed=1;html=1;entryX=0;entryY=0.5;entryDx=0;entryDy=0;exitX=1;exitY=0.5;exitDx=0;exitDy=0;" parent="1" source="f5g3qjjmolaXFry7MfMh-4" target="f5g3qjjmolaXFry7MfMh-2" edge="1">
          <mxGeometry width="50" height="50" relative="1" as="geometry">
            <mxPoint x="350" y="240" as="sourcePoint" />
            <mxPoint x="400" y="190" as="targetPoint" />
          </mxGeometry>
        </mxCell>
        <mxCell id="f5g3qjjmolaXFry7MfMh-7" value="«system»&lt;br&gt;&lt;b&gt;3D Cartography&lt;/b&gt;" style="html=1;fillColor=#f5f5f5;strokeColor=#666666;fontColor=#333333;" parent="1" vertex="1">
          <mxGeometry x="210" y="350" width="110" height="50" as="geometry" />
        </mxCell>
        <mxCell id="f5g3qjjmolaXFry7MfMh-8" value="«subsystem»&lt;br&gt;&lt;b&gt;Acquisition base&lt;/b&gt;" style="html=1;fillColor=#f5f5f5;strokeColor=#666666;fontColor=#333333;" parent="1" vertex="1">
          <mxGeometry x="320" y="260" width="120" height="50" as="geometry" />
        </mxCell>
        <mxCell id="f5g3qjjmolaXFry7MfMh-9" value="«subsystem»&lt;br&gt;&lt;b&gt;Processing software&lt;/b&gt;" style="html=1;fillColor=#f5f5f5;strokeColor=#666666;fontColor=#333333;" parent="1" vertex="1">
          <mxGeometry x="40" y="280" width="140" height="50" as="geometry" />
        </mxCell>
        <mxCell id="f5g3qjjmolaXFry7MfMh-10" value="«subsystem»&lt;br&gt;&lt;b&gt;Processing system&lt;/b&gt;" style="html=1;fillColor=#f5f5f5;strokeColor=#666666;fontColor=#333333;" parent="1" vertex="1">
          <mxGeometry x="90" y="460" width="140" height="50" as="geometry" />
        </mxCell>
        <mxCell id="f5g3qjjmolaXFry7MfMh-11" value="" style="endArrow=classic;html=1;dashed=1;entryX=0;entryY=0.5;entryDx=0;entryDy=0;exitX=1;exitY=0.5;exitDx=0;exitDy=0;" parent="1" source="f5g3qjjmolaXFry7MfMh-7" target="f5g3qjjmolaXFry7MfMh-1" edge="1">
          <mxGeometry width="50" height="50" relative="1" as="geometry">
            <mxPoint x="390" y="510" as="sourcePoint" />
            <mxPoint x="440" y="460" as="targetPoint" />
          </mxGeometry>
        </mxCell>
        <mxCell id="f5g3qjjmolaXFry7MfMh-12" value="" style="endArrow=none;dashed=1;html=1;exitX=0.75;exitY=0;exitDx=0;exitDy=0;entryX=0.25;entryY=1;entryDx=0;entryDy=0;" parent="1" source="f5g3qjjmolaXFry7MfMh-10" target="f5g3qjjmolaXFry7MfMh-7" edge="1">
          <mxGeometry width="50" height="50" relative="1" as="geometry">
            <mxPoint x="390" y="510" as="sourcePoint" />
            <mxPoint x="440" y="460" as="targetPoint" />
          </mxGeometry>
        </mxCell>
        <mxCell id="f5g3qjjmolaXFry7MfMh-13" value="" style="endArrow=none;dashed=1;html=1;entryX=0.25;entryY=1;entryDx=0;entryDy=0;exitX=0.75;exitY=0;exitDx=0;exitDy=0;" parent="1" source="f5g3qjjmolaXFry7MfMh-7" target="f5g3qjjmolaXFry7MfMh-8" edge="1">
          <mxGeometry width="50" height="50" relative="1" as="geometry">
            <mxPoint x="390" y="510" as="sourcePoint" />
            <mxPoint x="440" y="460" as="targetPoint" />
          </mxGeometry>
        </mxCell>
        <mxCell id="f5g3qjjmolaXFry7MfMh-14" value="" style="endArrow=none;dashed=1;html=1;entryX=0.75;entryY=1;entryDx=0;entryDy=0;exitX=0;exitY=0.5;exitDx=0;exitDy=0;" parent="1" source="f5g3qjjmolaXFry7MfMh-7" target="f5g3qjjmolaXFry7MfMh-9" edge="1">
          <mxGeometry width="50" height="50" relative="1" as="geometry">
            <mxPoint x="390" y="510" as="sourcePoint" />
            <mxPoint x="440" y="460" as="targetPoint" />
          </mxGeometry>
        </mxCell>
        <mxCell id="f5g3qjjmolaXFry7MfMh-17" value="Designed outside the scope of the project" style="shape=note;size=20;whiteSpace=wrap;html=1;" parent="1" vertex="1">
          <mxGeometry x="320" y="480" width="140" height="70" as="geometry" />
        </mxCell>
        <mxCell id="f5g3qjjmolaXFry7MfMh-18" value="" style="endArrow=none;dashed=1;html=1;entryX=0;entryY=0.5;entryDx=0;entryDy=0;entryPerimeter=0;exitX=1;exitY=0.5;exitDx=0;exitDy=0;" parent="1" source="f5g3qjjmolaXFry7MfMh-10" target="f5g3qjjmolaXFry7MfMh-17" edge="1">
          <mxGeometry width="50" height="50" relative="1" as="geometry">
            <mxPoint x="220" y="600" as="sourcePoint" />
            <mxPoint x="270" y="550" as="targetPoint" />
          </mxGeometry>
        </mxCell>
      </root>
    </mxGraphModel>
  </diagram>
</mxfile>
